<svg version="1.1" xmlns="http://www.w3.org/2000/svg" viewBox="0 0 190.6060180664062 252.42425537109375" width="190.6060180664062" height="252.42425537109375">
  <!-- svg-source:excalidraw -->
  
  <defs>
    <style class="style-fonts">
      @font-face {
        font-family: "Virgil";
        src: url("http://127.0.0.1:37840/node_modules/@excalidraw/excalidraw/dist//dist/excalidraw-assets/Virgil.woff2");
      }
      @font-face {
        font-family: "Cascadia";
        src: url("http://127.0.0.1:37840/node_modules/@excalidraw/excalidraw/dist//dist/excalidraw-assets/Cascadia.woff2");
      }
    </style>
    
  </defs>
  <rect x="0" y="0" width="190.6060180664062" height="252.42425537109375" fill="#ffffff"></rect><g stroke-linecap="round" transform="translate(5 5) rotate(0 90.3030090332031 121.21212768554688)"><path d="M32 0 M32 0 C68.74 1.31, 107.64 1.82, 148.61 0 M32 0 C77.01 -0.6, 123.72 -1.27, 148.61 0 M148.61 0 C167.94 -1.35, 180.04 10.21, 180.61 32 M148.61 0 C169.98 -1.05, 182.38 12.29, 180.61 32 M180.61 32 C180.35 88.56, 180.17 145.59, 180.61 210.42 M180.61 32 C180.66 94.9, 180.32 157.28, 180.61 210.42 M180.61 210.42 C180.99 231.54, 169.15 240.84, 148.61 242.42 M180.61 210.42 C180.72 232.52, 172.12 244.03, 148.61 242.42 M148.61 242.42 C114.47 242.2, 82.04 244.24, 32 242.42 M148.61 242.42 C113.81 242.93, 77.04 241.63, 32 242.42 M32 242.42 C9.11 240.55, 1.06 230.22, 0 210.42 M32 242.42 C10.89 242.18, -1.28 230.13, 0 210.42 M0 210.42 C-3.05 143.97, -0.18 74.77, 0 32 M0 210.42 C0.3 145.67, -0.67 78.86, 0 32 M0 32 C0.35 8.87, 10.53 -1.16, 32 0 M0 32 C0.26 12.83, 10.46 0.34, 32 0" stroke="#1e1e1e" stroke-width="1" fill="none"></path></g><g transform="translate(25.023056030273438 10) rotate(0 70.27995300292966 12.5)"><text x="70.27995300292969" y="0" font-family="Virgil, Segoe UI Emoji" font-size="20px" fill="#1e1e1e" text-anchor="middle" style="white-space: pre;" direction="ltr" dominant-baseline="text-before-edge">UEFI firmware</text></g><g stroke-linecap="round" transform="translate(15.05341026894348 193.413349984226) rotate(0 31.5 20.5)"><path d="M10.25 0 M10.25 0 C19.87 -0.25, 26.67 0.95, 52.75 0 M10.25 0 C22.56 -0.36, 33.51 0.03, 52.75 0 M52.75 0 C61.25 -0.59, 63.16 1.67, 63 10.25 M52.75 0 C57.37 1.74, 63.06 3.49, 63 10.25 M63 10.25 C62.74 14.11, 63.29 23.42, 63 30.75 M63 10.25 C62.77 15.44, 62.51 21.8, 63 30.75 M63 30.75 C62.05 36.85, 59.78 39.76, 52.75 41 M63 30.75 C64.03 36.56, 58.75 39.76, 52.75 41 M52.75 41 C41.48 41.17, 33.13 38.84, 10.25 41 M52.75 41 C42.62 40.02, 32.69 39.94, 10.25 41 M10.25 41 C2.9 41.61, 1.3 38.09, 0 30.75 M10.25 41 C5.11 38.84, -1.76 36.3, 0 30.75 M0 30.75 C-1.67 22.83, -0.63 16.66, 0 10.25 M0 30.75 C0.13 24.95, 0.26 17.14, 0 10.25 M0 10.25 C1.87 1.98, 5.18 -1.08, 10.25 0 M0 10.25 C1.26 4.15, 5.2 -1.04, 10.25 0" stroke="#1e1e1e" stroke-width="1" fill="none"></path></g><g transform="translate(24.243427969138793 201.413349984226) rotate(0 22.309982299804688 12.5)"><text x="22.309982299804688" y="0" font-family="Virgil, Segoe UI Emoji" font-size="20px" fill="#1e1e1e" text-anchor="middle" style="white-space: pre;" direction="ltr" dominant-baseline="text-before-edge">TPM</text></g><g stroke-linecap="round" transform="translate(28.92214088724012 40.09300082772563) rotate(0 66.72376291684282 21.88169531263972)"><path d="M10.94 0 M10.94 0 C55.27 0.44, 95.21 2.3, 122.51 0 M10.94 0 C45.67 -0.32, 79.3 -0.71, 122.51 0 M122.51 0 C128.52 -0.03, 133.3 3.02, 133.45 10.94 M122.51 0 C129.15 -0.05, 133.69 3.14, 133.45 10.94 M133.45 10.94 C134.02 16.76, 132.44 25.07, 133.45 32.82 M133.45 10.94 C133.17 18.18, 132.81 24.5, 133.45 32.82 M133.45 32.82 C134.68 39.24, 128.66 45.16, 122.51 43.76 M133.45 32.82 C134.95 42.22, 127.52 43.45, 122.51 43.76 M122.51 43.76 C94.44 44.99, 64 44.83, 10.94 43.76 M122.51 43.76 C82.28 44.39, 43.41 44.24, 10.94 43.76 M10.94 43.76 C5.38 43, -1.09 41.39, 0 32.82 M10.94 43.76 C4.99 46.01, -0.11 38.68, 0 32.82 M0 32.82 C-1.66 24.37, -0.13 17.76, 0 10.94 M0 32.82 C0.3 25.35, 0.37 17.72, 0 10.94 M0 10.94 C-1.57 4.89, 5.49 -0.56, 10.94 0 M0 10.94 C0.29 4.22, 1.63 0.91, 10.94 0" stroke="#1e1e1e" stroke-width="1" fill="none"></path></g><g transform="translate(37.4659645340634 49.47469614036538) rotate(0 58.17993927001953 12.5)"><text x="58.17993927001953" y="0" font-family="Virgil, Segoe UI Emoji" font-size="20px" fill="#1e1e1e" text-anchor="middle" style="white-space: pre;" direction="ltr" dominant-baseline="text-before-edge">secure boot</text></g></svg>